<svg width="1360" height="720" xmlns="http://www.w3.org/2000/svg" xmlns:xlink="http://www.w3.org/1999/xlink">
<defs>
<linearGradient id="aksGrad" x1="0" y1="0" x2="0" y2="1">
<stop offset="0" stop-color="#EAF3FB"/><stop offset="1" stop-color="#D6E8F7"/></linearGradient>
<marker id="mBlue" markerWidth="9" markerHeight="9" refX="8" refY="3" orient="auto"><path d="M0,0 L0,6 L8,3 z" fill="#0078D4"/></marker>
<marker id="mAmber" markerWidth="9" markerHeight="9" refX="8" refY="3" orient="auto"><path d="M0,0 L0,6 L8,3 z" fill="#C98A00"/></marker>
<marker id="mTeal" markerWidth="9" markerHeight="9" refX="8" refY="3" orient="auto"><path d="M0,0 L0,6 L8,3 z" fill="#008272"/></marker>
<marker id="mRed" markerWidth="9" markerHeight="9" refX="8" refY="3" orient="auto"><path d="M0,0 L0,6 L8,3 z" fill="#D13438"/></marker>
</defs>
<rect width="1360" height="720" fill="#FFFFFF"/>
<text x="680.0" y="40" font-family="Arial, sans-serif" font-size="26" font-weight="bold" text-anchor="middle" fill="#243A5E">Azure AKS Runtime Security &#8212; Defense in Depth</text>
<line x1="60" y1="66" x2="100" y2="66" stroke="#0078D4" stroke-width="3" marker-end="url(#mBlue)"/>
<text x="108" y="70" font-family="Arial, sans-serif" font-size="12" font-weight="normal" text-anchor="start" fill="#243A5E">Admission (Prevent)</text>
<line x1="270" y1="66" x2="310" y2="66" stroke="#C98A00" stroke-width="3" marker-end="url(#mAmber)"/>
<text x="318" y="70" font-family="Arial, sans-serif" font-size="12" font-weight="normal" text-anchor="start" fill="#243A5E">Runtime (Detect)</text>
<line x1="440" y1="66" x2="480" y2="66" stroke="#008272" stroke-width="3" marker-end="url(#mTeal)"/>
<text x="488" y="70" font-family="Arial, sans-serif" font-size="12" font-weight="normal" text-anchor="start" fill="#243A5E">Cloud (Defender)</text>
<line x1="620" y1="66" x2="660" y2="66" stroke="#D13438" stroke-width="3" marker-end="url(#mRed)"/>
<text x="668" y="70" font-family="Arial, sans-serif" font-size="12" font-weight="normal" text-anchor="start" fill="#243A5E">Blocked / Attack</text>
<rect x="70" y="300" width="130" height="86" rx="8" fill="#EEF1F5" stroke="#243A5E" stroke-width="2"/>
<text x="135" y="335" font-family="Arial, sans-serif" font-size="14" font-weight="bold" text-anchor="middle" fill="#243A5E">kubectl apply</text>
<text x="135" y="360" font-family="Arial, sans-serif" font-size="10" font-weight="normal" text-anchor="middle" fill="#666">pod create</text>
<rect x="270" y="286" width="180" height="118" rx="10" fill="#FFFFFF" stroke="#0078D4" stroke-width="3"/>
<svg x="300" y="300" width="46" height="46" viewBox="0 0 500 500" overflow="visible"><defs><style>.i1_cls-1{fill:#e87e5b;}.i1_cls-1,.i1_cls-2{fill-rule:evenodd;}.i1_cls-2{fill:#3784c5;}</style></defs><g id="i1-Layer_1" data-name="Layer 1"><path class="i1_cls-1" d="M85.978,159.12977,62.8,260.6758H86.6494l19.44481-85.18748c-3.67742-3.73171-7.44723-7.31243-11.34072-10.64083a10.63854,10.63854,0,0,1-2.57145-3.25561c-2.00621-.77007-4.09061-1.59534-6.204-2.46211M231.42381,67.34456,112.1119,124.80222c1.52162,2.13,2.97738,4.24159,4.34786,6.26969a10.64019,10.64019,0,0,1,3.75052,1.7744c3.83767,2.83657,7.86273,5.51845,12.00391,8.089l99.36786-47.85077c.55723-4.79743.95806-9.57158,1.12509-14.29529a10.66422,10.66422,0,0,1,.94635-4.03924C232.908,72.38443,232.15146,69.8955,231.42381,67.34456Zm161.27254,56.72785L274.88369,67.33715c-.72856,2.55341-1.48428,5.04528-2.23045,7.41284a10.67016,10.67016,0,0,1,.9465,4.03924c.16673,4.72171.56787,9.49415,1.12556,14.2902l98.02314,47.20224c4.15445-2.62574,8.1903-5.36392,12.0309-8.25678a10.68789,10.68789,0,0,1,3.7368-1.80756C389.8331,128.22825,391.23488,126.15989,392.69635,124.07241ZM443.51958,260.6758,420.01438,157.685c-2.37065,1.007-4.71138,1.95716-6.9554,2.8412a10.6927,10.6927,0,0,1-2.5423,3.27658c-3.65167,3.17757-7.19121,6.57908-10.6453,10.12063l19.802,86.75243Z"/><path class="i1_cls-2" d="M310.80628,197.98424l2.82932,3.494c1.31341-11.17046,10.57992-21.88857,28.16752-31.49762,18.333-10.01513,35.45434-18.90162,49.41063-29.40875l1.85044,2.28243q16.36194-25.5555,25.41716-32.17314c8.11195-4.9367,15.60838-3.49975,21.43667,3.00345,5.15077,7.05348,4.99824,14.68455-1.51791,21.59368q-8.35657,7.48094-36.75573,18.1712l1.84812,2.28289c-13.17744,11.47105-25.43089,26.36813-39.04109,42.21865-13.05143,15.20616-25.46389,22.04018-36.66458,21.00423l2.83148,3.4945-11.00713,8.91256L309.8843,207.878l-7.47391-3.09521ZM175.161,222.7922l2.79832-3.517c-11.18851,1.1345-23.66-5.59048-36.846-20.68251-13.74561-15.73207-26.12754-30.52212-39.40815-41.87534l1.83008-2.30047Q75.044,143.97428,66.62113,136.56738c-6.57383-6.85144-6.79345-14.48174-1.70561-21.57949,5.77123-6.55409,13.25378-8.05643,21.41092-3.19176q9.1105,6.54145,25.69447,31.95182l1.83069-2.30032c14.04929,10.38421,31.24622,19.12264,49.66588,28.978,17.67181,9.45251,27.031,20.09165,28.44142,31.24977l2.79956-3.51918,8.461,6.73068-7.22282,2.99111-9.80909,23.68672Zm62.25216-45.00356H241.91c-7.85409-8.05057-10.35459-21.99822-6.753-41.712,3.75484-20.55125,7.62165-39.44856,8.24072-56.90815h2.94052q-9.56509-28.79985-9.01095-40.00039c1.26961-9.41025,7.10423-14.334,15.82538-14.7703,8.72255.43631,14.55748,5.36005,15.82755,14.7703q.55059,11.20047-9.01173,40.00039h2.94052c.61938,17.45959,4.48666,36.3569,8.24074,56.90815,3.6017,19.71379,1.101,33.66144-6.75289,41.712h4.49668v13.11374l-15.954-6.60715-15.52634,6.42963Z"/><polygon class="i1_cls-1" points="252.939 193.893 278.016 204.281 303.097 214.664 313.479 239.747 322.151 260.676 276.724 260.676 274.707 255.806 270.974 246.787 261.956 243.055 252.939 239.32 243.923 243.055 234.905 246.787 231.172 255.806 229.155 260.676 183.729 260.676 192.4 239.747 202.783 214.664 227.864 204.281 252.939 193.893"/><path class="i1_cls-2" d="M68.2137,349.624a8.91449,8.91449,0,1,1-17.829,0V286.58912a8.91593,8.91593,0,0,1,8.91487-8.9141h384.218a8.91517,8.91517,0,0,1,8.91456,8.9141V349.624a8.91433,8.91433,0,1,1-17.82866,0v-54.12H260.32175v54.12a8.91433,8.91433,0,1,1-17.82866,0v-54.12H68.2137Z"/><path class="i1_cls-1" d="M241.91505,443.20813a1.18142,1.18142,0,0,0,.95652.48921h8.5364l8.53608-.00124a1.1742,1.1742,0,0,0,.92336-.44741l5.323-6.67131,5.322-6.67578a1.188,1.188,0,0,0,.22672-.99354l-3.7951-16.63169a1.16455,1.16455,0,0,0-.64144-.81571l-15.381-7.40682a1.17893,1.17893,0,0,0-1.02671,0l-15.381,7.40682a1.187,1.187,0,0,0-.63789.80337l-3.79,16.60146a1.18422,1.18422,0,0,0,.21808,1.03735ZM229.851,467.85723a2.68563,2.68563,0,0,0,2.174,1.10751H251.41l19.385-.00354a2.6692,2.6692,0,0,0,2.09736-1.01282l12.08719-15.15357,12.085-15.159a2.708,2.708,0,0,0,.51744-2.25806l-8.62075-37.76932a2.65084,2.65084,0,0,0-1.45654-1.85182l-34.93073-16.82278a2.67955,2.67955,0,0,0-2.32855,0l-34.9309,16.82278a2.6774,2.6774,0,0,0-1.44836,1.82375l-8.607,37.70054a2.68116,2.68116,0,0,0,.494,2.35614Z"/><path class="i1_cls-1" d="M48.64133,443.20813a1.17824,1.17824,0,0,0,.95653.48921h8.53639l8.53608-.00124a1.17715,1.17715,0,0,0,.92337-.44741l5.32335-6.67131,5.31965-6.67578a1.18728,1.18728,0,0,0,.22841-.99354l-3.7968-16.63169a1.16679,1.16679,0,0,0-.6402-.81571l-15.38228-7.40682a1.17622,1.17622,0,0,0-1.02547,0l-15.38028,7.40682a1.18185,1.18185,0,0,0-.63835.80337l-3.78955,16.60146a1.17623,1.17623,0,0,0,.21824,1.03735Zm-12.06375,24.6491a2.685,2.685,0,0,0,2.17308,1.10751H58.13425l19.38652-.00354a2.67635,2.67635,0,0,0,2.09812-1.01282l12.08627-15.15357,12.08365-15.159a2.69274,2.69274,0,0,0,.51743-2.25806l-8.61936-37.76932a2.64767,2.64767,0,0,0-1.45592-1.85182L59.30037,378.93387a2.6829,2.6829,0,0,0-2.33008,0L22.03877,395.75665a2.686,2.686,0,0,0-1.44866,1.82375l-8.60456,37.70054a2.67125,2.67125,0,0,0,.49414,2.35614Z"/><path class="i1_cls-1" d="M432.85945,443.20813a1.178,1.178,0,0,0,.95652.48921h8.5361l8.53622-.00124a1.17706,1.17706,0,0,0,.92321-.44741l5.32337-6.67131,5.31979-6.67578a1.18136,1.18136,0,0,0,.2281-.99354l-3.7951-16.63169a1.16472,1.16472,0,0,0-.64159-.81571l-15.381-7.40682a1.17853,1.17853,0,0,0-1.02653,0l-15.38107,7.40682a1.18977,1.18977,0,0,0-.638.80337l-3.79,16.60146a1.18425,1.18425,0,0,0,.21822,1.03735Zm-12.06422,24.6491a2.68578,2.68578,0,0,0,2.1734,1.10751h19.38344l19.38635-.00354a2.67442,2.67442,0,0,0,2.09828-1.01282l12.08642-15.15357,12.08349-15.159a2.69186,2.69186,0,0,0,.51667-2.25806l-8.61844-37.76932a2.6516,2.6516,0,0,0-1.45592-1.85182l-34.93136-16.82278a2.6829,2.6829,0,0,0-2.33008,0l-34.9309,16.82278a2.68376,2.68376,0,0,0-1.44851,1.82375l-8.60487,37.70054a2.67227,2.67227,0,0,0,.4943,2.35614Z"/></g></svg>
<text x="388" y="318" font-family="Arial, sans-serif" font-size="15" font-weight="bold" text-anchor="start" fill="#0078D4">Kyverno</text>
<text x="388" y="336" font-family="Arial, sans-serif" font-size="10" font-weight="normal" text-anchor="start" fill="#666">Admission Webhook</text>
<text x="360" y="372" font-family="Arial, sans-serif" font-size="10" font-weight="bold" text-anchor="middle" fill="#243A5E">4 Enforce policies:</text>
<text x="360" y="388" font-family="Arial, sans-serif" font-size="9" font-weight="normal" text-anchor="middle" fill="#666">privileged · hostPath · host-ns · nonroot</text>
<rect x="300" y="150" width="180" height="70" rx="8" fill="#FBE9EA" stroke="#D13438" stroke-width="2"/>
<circle cx="332" cy="185" r="14" fill="#FFFFFF" stroke="#D13438" stroke-width="2"/>
<path d="M325,178 L339,192 M339,178 L325,192" stroke="#D13438" stroke-width="3"/>
<text x="410" y="180" font-family="Arial, sans-serif" font-size="13" font-weight="bold" text-anchor="middle" fill="#D13438">DENIED</text>
<text x="405" y="198" font-family="Arial, sans-serif" font-size="9" font-weight="normal" text-anchor="middle" fill="#666">unsafe pod rejected</text>
<rect x="560" y="150" width="470" height="500" rx="12" fill="url(#aksGrad)" stroke="#0078D4" stroke-width="3"/>
<svg x="584" y="168" width="34" height="34" viewBox="0 0 18 18" overflow="visible"><defs><linearGradient id="i2-b70c9cf1-bab8-47e0-bbdb-ce1cd664d268" x1="2.94" y1="3.74" x2="8.67" y2="3.74" gradientUnits="userSpaceOnUse"><stop offset="0" stop-color="#b77af4" /><stop offset="1" stop-color="#773adc" /></linearGradient><linearGradient id="i2-beb69953-bd96-4515-8843-ac12546af936" x1="9.13" y1="3.79" x2="14.85" y2="3.79" gradientUnits="userSpaceOnUse"><stop offset="0" stop-color="#b77af4" /><stop offset="1" stop-color="#773adc" /></linearGradient><linearGradient id="i2-a39c76e8-547e-4eb4-bc25-d81c0f8cda62" x1="0.01" y1="9.12" x2="5.73" y2="9.12" gradientUnits="userSpaceOnUse"><stop offset="0" stop-color="#b77af4" /><stop offset="1" stop-color="#773adc" /></linearGradient><linearGradient id="i2-f0a2a491-17dc-4bb8-bbfc-ee58a5cf47da" x1="6.18" y1="9.08" x2="11.9" y2="9.08" gradientUnits="userSpaceOnUse"><stop offset="0" stop-color="#b77af4" /><stop offset="1" stop-color="#773adc" /></linearGradient><linearGradient id="i2-efc6a56d-8585-417d-931a-1dac2114ccd0" x1="12.35" y1="9.13" x2="18.08" y2="9.13" gradientUnits="userSpaceOnUse"><stop offset="0" stop-color="#b77af4" /><stop offset="1" stop-color="#773adc" /></linearGradient><linearGradient id="i2-e399aa93-341f-4df2-9c02-603b82b484c2" x1="2.87" y1="14.56" x2="8.6" y2="14.56" gradientUnits="userSpaceOnUse"><stop offset="0" stop-color="#b77af4" /><stop offset="1" stop-color="#773adc" /></linearGradient><linearGradient id="i2-a152bba0-ba2b-483a-b8c1-0ae7de355990" x1="9.05" y1="14.6" x2="14.78" y2="14.6" gradientUnits="userSpaceOnUse"><stop offset="0" stop-color="#b77af4" /><stop offset="1" stop-color="#773adc" /></linearGradient></defs><polygon points="5.8 1.22 2.94 1.75 2.94 5.65 5.8 6.26 8.67 5.11 8.67 2.2 5.8 1.22" fill="url(#i2-b70c9cf1-bab8-47e0-bbdb-ce1cd664d268)" /><path d="M5.91,6.2,8.53,5.14A.2.2,0,0,0,8.65,5V2.36a.21.21,0,0,0-.13-.18l-2.65-.9H5.75l-2.6.48A.2.2,0,0,0,3,1.94V5.47a.19.19,0,0,0,.15.19l2.63.55A.32.32,0,0,0,5.91,6.2Z" fill="none" /><path d="M2.94,1.75v3.9l2.89.61v-5Zm1.22,3.6-.81-.16v-3l.81-.13Zm1.26.23-.93-.15V2l.93-.16Z" fill="#341a6e" /><polygon points="11.99 1.27 9.13 1.8 9.13 5.7 11.99 6.31 14.85 5.15 14.85 2.25 11.99 1.27" fill="url(#i2-beb69953-bd96-4515-8843-ac12546af936)" /><path d="M9.13,1.8V5.7L12,6.31v-5Zm1.21,3.6-.81-.16v-3l.81-.13Zm1.26.23-.93-.15V2.05l.93-.17Z" fill="#341a6e" /><polygon points="2.87 6.6 0.01 7.13 0.01 11.03 2.87 11.64 5.74 10.49 5.74 7.58 2.87 6.6" fill="url(#i2-a39c76e8-547e-4eb4-bc25-d81c0f8cda62)" /><path d="M0,7.13V11l2.89.61v-5Zm1.21,3.61-.81-.17v-3l.81-.14ZM2.48,11l-.93-.15V7.38l.93-.16Z" fill="#341a6e" /><polygon points="9.04 6.56 6.18 7.09 6.18 10.99 9.04 11.61 11.9 10.45 11.9 7.54 9.04 6.56" fill="url(#i2-f0a2a491-17dc-4bb8-bbfc-ee58a5cf47da)" /><path d="M6.18,7.09V11l2.88.61v-5ZM7.39,10.7l-.81-.17v-3l.81-.14Zm1.26.22-.93-.15V7.34l.93-.16Z" fill="#341a6e" /><polygon points="15.21 6.61 12.35 7.14 12.35 11.04 15.21 11.65 18.08 10.5 18.08 7.59 15.21 6.61" fill="url(#i2-efc6a56d-8585-417d-931a-1dac2114ccd0)" /><path d="M12.35,7.14V11l2.89.61v-5Zm1.22,3.61-.81-.17v-3l.81-.14Zm1.26.22-.93-.15V7.39l.93-.16Z" fill="#341a6e" /><polygon points="5.73 12.04 2.87 12.56 2.87 16.46 5.73 17.08 8.6 15.92 8.6 13.02 5.73 12.04" fill="url(#i2-e399aa93-341f-4df2-9c02-603b82b484c2)" /><path d="M5.84,17,8.45,16a.18.18,0,0,0,.12-.18v-2.6A.2.2,0,0,0,8.44,13L5.8,12.1a.17.17,0,0,0-.12,0l-2.6.47a.19.19,0,0,0-.16.19v3.54a.19.19,0,0,0,.15.19L5.7,17A.23.23,0,0,0,5.84,17Z" fill="none" /><path d="M2.87,12.56v3.9l2.89.62V12Zm1.22,3.61L3.28,16V13l.81-.14Zm1.26.23-.93-.15V12.81l.93-.16Z" fill="#341a6e" /><polygon points="11.91 12.08 9.05 12.61 9.05 16.51 11.91 17.12 14.78 15.97 14.78 13.06 11.91 12.08" fill="url(#i2-a152bba0-ba2b-483a-b8c1-0ae7de355990)" /><path d="M9.05,12.61v3.9l2.89.61v-5Zm1.22,3.61-.81-.17v-3l.81-.14Zm1.26.22-.93-.15V12.86l.93-.16Z" fill="#341a6e" /></svg>
<text x="628" y="184" font-family="Arial, sans-serif" font-size="16" font-weight="bold" text-anchor="start" fill="#0078D4">AKS Cluster</text>
<text x="584" y="210" font-family="Arial, sans-serif" font-size="10" font-weight="normal" text-anchor="start" fill="#243A5E">OIDC issuer · workload identity · managed identity</text>
<rect x="640" y="250" width="200" height="150" rx="6" fill="#FFFFFF" stroke="#B0B7C3" stroke-width="1.5" stroke-dasharray="5,4"/>
<text x="740" y="272" font-family="Arial, sans-serif" font-size="10" font-weight="bold" text-anchor="middle" fill="#666">attack-lab (exempt ns)</text>
<rect x="662" y="288" width="156" height="98" rx="6" fill="#FBE9EA" stroke="#D13438" stroke-width="2"/>
<text x="740" y="308" font-family="Arial, sans-serif" font-size="12" font-weight="bold" text-anchor="middle" fill="#D13438">Vulnerable Pod</text>
<text x="740" y="326" font-family="Arial, sans-serif" font-size="9" font-weight="normal" text-anchor="middle" fill="#666">shell · read secrets</text>
<text x="740" y="340" font-family="Arial, sans-serif" font-size="9" font-weight="normal" text-anchor="middle" fill="#666">escape · drop binary</text>
<text x="740" y="354" font-family="Arial, sans-serif" font-size="9" font-weight="normal" text-anchor="middle" fill="#666">IMDS credential theft</text>
<text x="740" y="374" font-family="Arial, sans-serif" font-size="9" font-weight="normal" text-anchor="middle" fill="#999" font-style="italic">5 MITRE ATT&amp;CK techniques</text>
<rect x="628" y="470" width="224" height="120" rx="10" fill="#FFFFFF" stroke="#C98A00" stroke-width="3"/>
<svg x="648" y="500" width="60" height="60" viewBox="48.91 -1.09 472.18 576.68" overflow="visible"><defs><style>.i3_cls-2{fill:#00b4c8}</style></defs><path fill="none" d="M196.604 498.09a89.682 89.682 0 0 0-13.023.965 40.633 40.633 0 0 0-11.9 3.536 21.616 21.616 0 0 0-8.521 7.237 20.21 20.21 0 0 0-3.215 11.737 31.384 31.384 0 0 0 1.219 9.165 17.022 17.022 0 0 0 7.46 9.96q8.682 5.31 23.477 5.307 18.004 0 27.333-1.93v-43.083a75.905 75.905 0 0 0-9.323-1.93 86.893 86.893 0 0 0-13.507-.965z"/><path d="M449.796 202.845q-59.153 58.926-118.375 117.786L146.075 505.977l-.455-.454c-10.614 10.65-21.158 21.371-31.393 32.377-5.393 5.8-7.384 13.173-1.166 19.87 6.506 7.012 14.346 6.588 21.53 1.266 5.376-3.982 10.062-8.948 14.822-13.705q150.23-150.18 300.194-300.633l60.89-10.613c-9.937-10.087-51.278-40.626-60.7-31.24z" class="i3_cls-2"/><path d="M478.784 292.437a12.923 12.923 0 0 0-9.082-12.55c-9.699-3.506-16.357 2.168-22.599 8.406Q324.865 410.481 202.66 532.702c-7.21 7.214-14.657 15.812-5.816 25.346 9.758 10.524 18.9 2.988 26.64-4.743q123.57-123.452 247.065-246.983c3.915-3.915 7.825-7.863 8.236-13.885zm-162.923-9.911l17.142-17.141c-1.391-4.326-4.908-8.414-8.611-12.12Q206.824 135.632 89.169 18.086c-4.387-4.384-9.075-8.341-15.87-8.073-5.329.275-9.597 2.553-11.62 7.553-3.576 8.834.995 15.298 6.89 21.195q117.585 117.616 235.184 235.215c3.707 3.706 7.796 7.18 12.108 8.55zm154.131 108.506c7.257-7.343 13.7-16.123 3.918-25.36-8.782-8.293-17.17-2.51-24.072 4.354-31.334 31.157-62.48 62.504-93.819 93.655-10.96 10.893-10.454 21.057.401 31.721 18.385 18.067 36.744 36.174 54.585 54.771 10.004 10.428 20.93 16.95 35.042 14.194 3.259.21 5.737.691 8.15.466 10.303-.957 23.307-.281 23.634-14.478.335-14.644-12.332-14.708-22.943-14.312-10.777.402-18.684-4.032-25.845-11.565-10.991-11.561-21.99-23.19-33.87-33.808-10.513-9.4-9.018-16.292.55-25.497 25.204-24.25 49.677-49.261 74.27-74.14zm-209.337-75.967c3.818 3.802 8.394 7.687 13.347 9.321l17.063-17.063c-2.163-6.188-7.316-10.32-11.784-14.798q-72.062-72.226-144.255-144.32c-9.966-9.96-19.873-19.993-30.15-29.63-6.04-5.667-13.213-7.124-19.652-.742-6.13 6.073-5.69 13.22-.859 20.024a66.122 66.122 0 0 0 7.223 8.303q84.46 84.526 169.067 168.905zm-64.009 20.518c9.1 9.076 18.153 18.214 27.585 26.935a17.673 17.673 0 0 0 7.408 4.233l17.85-17.85c-1.172-4.601-4.226-8.242-7.63-11.65q-54.495-54.594-109.11-109.066a33.321 33.321 0 0 0-10.425-7.263c-5.97-2.449-12.126-2.054-16.872 3.173-4.793 5.279-4.73 11.353-1.011 16.908a96.1 96.1 0 0 0 11.722 14.029q40.113 40.402 80.483 80.551z" class="i3_cls-2"/></svg>
<text x="760" y="505" font-family="Arial, sans-serif" font-size="15" font-weight="bold" text-anchor="middle" fill="#B37E00">Falco DaemonSet</text>
<text x="760" y="523" font-family="Arial, sans-serif" font-size="10" font-weight="normal" text-anchor="middle" fill="#666">modern eBPF · every node</text>
<line x1="720" y1="536" x2="835" y2="536" stroke="#EEE" stroke-width="1"/>
<text x="772" y="554" font-family="Arial, sans-serif" font-size="10" font-weight="normal" text-anchor="middle" fill="#243A5E">5 MITRE-tagged rules</text>
<text x="772" y="570" font-family="Arial, sans-serif" font-size="9" font-weight="normal" text-anchor="middle" fill="#666">Container Escape = CRITICAL</text>
<rect x="1110" y="250" width="200" height="120" rx="10" fill="#E6F4F1" stroke="#008272" stroke-width="3"/>
<svg x="1128" y="268" width="42" height="42" viewBox="0 0 18 18" overflow="visible"><defs><linearGradient id="i4-f36136e6-f568-4134-ab6f-c0fefbc04f83" x1="9" y1="16.795" x2="9" y2="1.205" gradientUnits="userSpaceOnUse"><stop offset="0" stop-color="#5e9624" /><stop offset="0.321" stop-color="#639d26" /><stop offset="0.794" stop-color="#6fb12a" /><stop offset="0.999" stop-color="#76bc2d" /></linearGradient></defs><g><path d="M16.083,8.438c0,4.571-5.626,8.25-6.85,9a.449.449,0,0,1-.466,0c-1.224-.747-6.85-4.426-6.85-9v-5.5A.44.44,0,0,1,2.351,2.5C6.728,2.386,5.72.5,9,.5s2.272,1.886,6.649,2a.44.44,0,0,1,.434.435Z" fill="#76bc2d" /><path d="M15.5,8.485c0,4.191-5.16,7.566-6.282,8.25a.412.412,0,0,1-.428,0C7.664,16.051,2.5,12.676,2.5,8.485V3.441a.4.4,0,0,1,.4-.4C6.916,2.935,5.992,1.205,9,1.205s2.084,1.73,6.1,1.837a.4.4,0,0,1,.4.4Z" fill="url(#i4-f36136e6-f568-4134-ab6f-c0fefbc04f83)" /><path d="M11.853,7.66h-.408l0-1.417a2.652,2.652,0,0,0-.7-1.809,2.358,2.358,0,0,0-3.483,0,2.606,2.606,0,0,0-.7,1.808V7.66H6.147a.328.328,0,0,0-.326.32v3.682a.329.329,0,0,0,.326.32h5.706a.329.329,0,0,0,.326-.32V7.98A.328.328,0,0,0,11.853,7.66Zm-1.549,0H7.7V6.219a1.434,1.434,0,0,1,.41-.99,1.2,1.2,0,0,1,1.788,0,1.394,1.394,0,0,1,.153.2h0a1.445,1.445,0,0,1,.258.791Z" fill="#fff" /><path d="M6.148,7.658h5.705a.328.328,0,0,1,.21.08L5.938,11.9a.313.313,0,0,1-.116-.241V7.979A.328.328,0,0,1,6.148,7.658Z" fill="#b3b3b3" opacity="0.15" /><path d="M11.853,7.658H6.147a.328.328,0,0,0-.209.08L12.062,11.9a.314.314,0,0,0,.117-.241V7.979A.329.329,0,0,0,11.853,7.658Z" fill="#a3a3a3" opacity="0.09" /></g></svg>
<text x="1180" y="286" font-family="Arial, sans-serif" font-size="13" font-weight="bold" text-anchor="start" fill="#008272">Defender for</text>
<text x="1180" y="302" font-family="Arial, sans-serif" font-size="13" font-weight="bold" text-anchor="start" fill="#008272">Containers</text>
<text x="1210" y="330" font-family="Arial, sans-serif" font-size="9" font-weight="normal" text-anchor="middle" fill="#666">agentless image CVEs</text>
<text x="1210" y="344" font-family="Arial, sans-serif" font-size="9" font-weight="normal" text-anchor="middle" fill="#666">control-plane alerts</text>
<text x="1210" y="358" font-family="Arial, sans-serif" font-size="9" font-weight="normal" text-anchor="middle" fill="#666">subscription plan</text>
<rect x="1110" y="470" width="200" height="100" rx="10" fill="#FFFFFF" stroke="#243A5E" stroke-width="2"/>
<svg x="1128" y="492" width="42" height="42" viewBox="0 0 18 18" overflow="visible"><defs><linearGradient id="i5-a997e203-1d7d-4cb9-b131-5dc44e029b46" x1="5.23" y1="17.45" x2="5.23" y2="8.09" gradientUnits="userSpaceOnUse"><stop offset="0" stop-color="#1988d9" /><stop offset="0.9" stop-color="#54aef0" /></linearGradient><linearGradient id="i5-e122e9d8-aee5-4f1a-a60e-b1eae355daa5" x1="11.5" y1="12.45" x2="11.5" y2="0.55" gradientUnits="userSpaceOnUse"><stop offset="0" stop-color="#198ab3" /><stop offset="0.01" stop-color="#198bb4" /><stop offset="0.44" stop-color="#27b2d7" /><stop offset="0.79" stop-color="#2fcbed" /><stop offset="1" stop-color="#32d4f5" /></linearGradient></defs><path d="M5.59,13.13H9.91v4.32H5.59ZM1.15,17.45H4.87V13.13H.55v3.72A.6.6,0,0,0,1.15,17.45Zm-.6-5H4.87V8.09H.55Z" fill="url(#i5-a997e203-1d7d-4cb9-b131-5dc44e029b46)" /><path d="M11.5.55a5.89,5.89,0,0,1,5.95,6,5.89,5.89,0,0,1-5.95,5.95H5.55V6.5A5.89,5.89,0,0,1,11.5.55Z" fill-rule="evenodd" fill="url(#i5-e122e9d8-aee5-4f1a-a60e-b1eae355daa5)" /><rect x="7.59" y="5.65" width="1.36" height="4.08" fill="#fff" /><rect x="10.31" y="7.01" width="1.36" height="2.72" fill="#fff" /><rect x="13.03" y="4.29" width="1.36" height="5.44" fill="#fff" /></svg>
<text x="1188" y="512" font-family="Arial, sans-serif" font-size="13" font-weight="bold" text-anchor="start" fill="#243A5E">Log Analytics</text>
<text x="1188" y="530" font-family="Arial, sans-serif" font-size="10" font-weight="normal" text-anchor="start" fill="#666">shared workspace</text>
<text x="1210" y="552" font-family="Arial, sans-serif" font-size="9" font-weight="normal" text-anchor="middle" fill="#999">correlation + retention</text>
<path d="M200,343 L262,343" stroke="#0078D4" stroke-width="3" fill="none" marker-end="url(#mBlue)"/>
<path d="M390,286 L390,224" stroke="#D13438" stroke-width="3" fill="none" stroke-dasharray="8,4" marker-end="url(#mRed)"/>
<path d="M450,343 L632,343" stroke="#0078D4" stroke-width="3" fill="none" marker-end="url(#mBlue)"/>
<text x="541" y="333" font-family="Arial, sans-serif" font-size="10" font-weight="bold" text-anchor="middle" fill="#0078D4">exempt ns</text>
<path d="M740,402 L740,462" stroke="#C98A00" stroke-width="3" fill="none" marker-end="url(#mAmber)"/>
<text x="792" y="440" font-family="Arial, sans-serif" font-size="10" font-weight="bold" text-anchor="middle" fill="#B37E00">syscalls</text>
<path d="M852,530 L1102,520" stroke="#C98A00" stroke-width="3" fill="none" marker-end="url(#mAmber)"/>
<path d="M1030,300 L1102,300" stroke="#008272" stroke-width="3" fill="none" marker-end="url(#mTeal)"/>
<text x="1066" y="292" font-family="Arial, sans-serif" font-size="9" font-weight="bold" text-anchor="middle" fill="#008272">control plane</text>
<path d="M1210,372 L1210,462" stroke="#008272" stroke-width="3" fill="none" marker-end="url(#mTeal)"/>
<text x="360" y="250" font-family="Arial, sans-serif" font-size="12" font-weight="bold" text-anchor="middle" fill="#0078D4">1. Prevent</text>
<text x="760" y="620" font-family="Arial, sans-serif" font-size="12" font-weight="bold" text-anchor="middle" fill="#B37E00">2. Detect</text>
<text x="1210" y="600" font-family="Arial, sans-serif" font-size="12" font-weight="bold" text-anchor="middle" fill="#008272">3. Cloud</text>
<text x="680.0" y="690" font-family="Arial, sans-serif" font-size="12" font-weight="normal" text-anchor="middle" fill="#666">Terraform-provisioned AKS  |  Admission: Kyverno (CLI-tested)  |  Runtime: Falco  |  Cloud: Microsoft Defender for Containers</text>
</svg>